# xmcd
#
# Track frame offsets: 
#        150
#        18520
#        62345
#        100810
#        126775
#        151010
#        176680
#        205640
#        238860
#
# Disc length: 3580 seconds
#
# Revision: 0
# Processed by: cddbd v1.5.2PL0 Copyright (c) Steve Scherf et al.
# Submitted via: ExactAudioCopy v0.95b3
#
DISCID=690dfa09
DTITLE=VVAA - Legends Of The Blues (Live)
DYEAR=2000
DGENRE=Blues
TTITLE0=A Whole Lot Of Lovin'
TTITLE1=Go For It
TTITLE2=Sweet Thing
TTITLE3=I Have My Fun
TTITLE4=Everybody Wants To Go To Heaven
TTITLE5=Outside Help
TTITLE6=Baby, Please Don't Go
TTITLE7=Do What You Wanna Do
TTITLE8=It Ain't Yo Business
EXTD=
EXTT0=
EXTT1=
EXTT2=
EXTT3=
EXTT4=
EXTT5=
EXTT6=
EXTT7=
EXTT8=
PLAYORDER=
